{"title":"The.Lovers.2015.WEBRip.480p.x264.AAC-VYTO [P2PDL]","uid":11706545,"size":401028059,"categoryP":"video","categoryS":"movies","magnet":"?xt=urn:btih:c633a4759633b7ac43f777f4f6948a8010464eac&amp;dn=The.Lovers.2015.WEBRip.480p.x264.AAC-VYTO+%5BP2PDL%5D&amp;tr=udp%3A%2F%2Ftracker.openbittorrent.com%3A80&amp;tr=udp%3A%2F%2Fopen.demonii.com%3A1337&amp;tr=udp%3A%2F%2Ftracker.coppersurfer.tk%3A6969&amp;tr=udp%3A%2F%2Fexodus.desync.com%3A6969","seeders":1,"leechers":0,"uploader":"ValidusVyto","files":6,"time":1424152395,"description":"The.Lovers.2015.WEBRip.480p.x264.AAC-VYTO\n\n\nGenre: Action | Adventure | Romance \nIMDb: http://www.imdb.com/title/tt1321869/\n\nFormat                      : MPEG-4\nFile size                   : 377 MiB\nDuration                    : 1h 49mn\nOverall bit rate mode       : Variable\nOverall bit rate            : 482 Kbps\n\nVideo\nFormat                      : AVC\nBit rate                    : 431 Kbps\nWidth                       : 720 pixels\nHeight                      : 304 pixels\nDisplay aspect ratio        : 2.35:1\nFrame rate mode             : Constant\nFrame rate                  : 24.000 fps\nBit depth                   : 8 bits\nStream size                 : 337 MiB (89%)\nWriting library             : x264 core 144 r2525kMod 40bb568\n\nAudio\nFormat                      : AAC\nBit rate mode               : Variable\nBit rate                    : 48.0 Kbps\nChannel(s)                  : 2 channels\nChannel positions           : Front: L R\nSampling rate               : 48.0 KHz\nStream size                 : 37.5 MiB (10%)\nLanguage                    : English\n\nSubtitle                    : English\nSource                      : 720p.WEB-DL.DD5.1.H264\n &lt;a href=&quot;\nhttp://someimage.com/WgudhuJ&quot; rel=&quot;nofollow&quot; target=&quot;_NEW&quot;&gt;\nhttp://someimage.com/WgudhuJ&lt;/a&gt; &lt;a href=&quot;\nhttp://someimage.com/3Ql9lOU&quot; rel=&quot;nofollow&quot; target=&quot;_NEW&quot;&gt;\nhttp://someimage.com/3Ql9lOU&lt;/a&gt; &lt;a href=&quot;\nhttp://someimage.com/A9efqY4&quot; rel=&quot;nofollow&quot; target=&quot;_NEW&quot;&gt;\nhttp://someimage.com/A9efqY4&lt;/a&gt; &lt;a href=&quot;\nhttp://someimage.com/2PvHfdO&quot; rel=&quot;nofollow&quot; target=&quot;_NEW&quot;&gt;\nhttp://someimage.com/2PvHfdO&lt;/a&gt; &lt;a href=&quot;\nhttp://someimage.com/2OXzR8J&quot; rel=&quot;nofollow&quot; target=&quot;_NEW&quot;&gt;\nhttp://someimage.com/2OXzR8J&lt;/a&gt; &lt;a href=&quot;\nhttp://someimage.com/HbltKEa&quot; rel=&quot;nofollow&quot; target=&quot;_NEW&quot;&gt;\nhttp://someimage.com/HbltKEa&lt;/a&gt; &lt;a href=&quot;\nhttp://someimage.com/iB42Vfp&quot; rel=&quot;nofollow&quot; target=&quot;_NEW&quot;&gt;\nhttp://someimage.com/iB42Vfp&lt;/a&gt; &lt;a href=&quot;\nhttp://someimage.com/l3MJnDN&quot; rel=&quot;nofollow&quot; target=&quot;_NEW&quot;&gt;\nhttp://someimage.com/l3MJnDN&lt;/a&gt; &lt;a href=&quot;\nhttp://someimage.com/dAujFXU&quot; rel=&quot;nofollow&quot; target=&quot;_NEW&quot;&gt;\nhttp://someimage.com/dAujFXU&lt;/a&gt;\n\n----------------------------------------------------------------------------------------------------\n\n\nEncoder Notes: Looking For Early Access To Anything You Can Provide DVDScr, R5, DVDR, BluRay, Direct\nAudio, Music Releases and Seedboxes. If You Got anything to offer please contact us.\n\nWe require dedicated servers, so as to do more and fast releases of movies.\nSupport us by sending us LC - LezHMTo2cYaiztCCcWxB4cNFVNVpWW3GSx","torrent":{"xt":"urn:btih:c633a4759633b7ac43f777f4f6948a8010464eac","amp;dn":"The.Lovers.2015.WEBRip.480p.x264.AAC-VYTO+%5BP2PDL%5D","amp;tr":["udp%3A%2F%2Ftracker.openbittorrent.com%3A80","udp%3A%2F%2Fopen.demonii.com%3A1337","udp%3A%2F%2Ftracker.coppersurfer.tk%3A6969","udp%3A%2F%2Fexodus.desync.com%3A6969"],"infoHash":"c633a4759633b7ac43f777f4f6948a8010464eac","infoHashBuffer":{"type":"Buffer","data":[198,51,164,117,150,51,183,172,67,247,119,244,246,148,138,128,16,70,78,172]},"announce":[],"urlList":[]}}